<svg xmlns="http://www.w3.org/2000/svg" width="54.026" height="54.026" viewBox="0 0 54.026 54.026"><g transform="translate(-4.987 -4.987)"><path d="M32,4.987A27.013,27.013,0,1,0,59.013,32,27.013,27.013,0,0,0,32,4.987Zm0,51.026A24.013,24.013,0,1,1,56.013,32,24.013,24.013,0,0,1,32,56.013Zm2.3-9.6a1.5,1.5,0,0,1-.787,1.971,3.272,3.272,0,0,1-1.292.287,2.441,2.441,0,0,1-1.3-.363,3.2,3.2,0,0,1-1.339-2.464,1.5,1.5,0,0,1,2.982-.3,1.5,1.5,0,0,1,1.736.871Zm-3.756-7.466V16.829a1.5,1.5,0,1,1,3,0v22.12a1.5,1.5,0,0,1-3,0Z" fill="#e31b23"/></g></svg>